<?xml version="1.0" encoding="utf-8"?>
<!-- Generator: Adobe Illustrator 29.2.1, SVG Export Plug-In . SVG Version: 9.03 Build 55982)  -->
<svg version="1.1" id="Layer_1" xmlns="http://www.w3.org/2000/svg" xmlns:xlink="http://www.w3.org/1999/xlink" x="0px" y="0px"
	 viewBox="0 0 375.5 109.4" style="enable-background:new 0 0 375.5 109.4;" xml:space="preserve">
<style type="text/css">
	.st0{display:none;}
	.st1{display:inline;}
	.st2{fill:#FFFFFF;}
</style>
<g id="background" class="st0">
	<rect x="-84.7" y="-40" class="st1" width="545" height="189.3"/>
</g>
<g id="Digital_Labs">
	<path class="st2" d="M136.3,66.9h-8.7V42.5h8.7c2.4,0,4.6,0.5,6.4,1.4c1.8,1,3.1,2.4,4.1,4.2c0.9,1.8,1.4,4,1.4,6.6
		s-0.5,4.7-1.4,6.6s-2.3,3.2-4.1,4.2S138.8,67,136.3,66.9L136.3,66.9z M132.8,62.5h3.3c1.5,0,2.8-0.2,3.9-0.8s1.8-1.4,2.4-2.5
		s0.8-2.6,0.8-4.5s-0.2-3.3-0.8-4.4s-1.3-2-2.3-2.5s-2.3-0.8-3.9-0.8h-3.3L132.8,62.5L132.8,62.5L132.8,62.5z"/>
	<path class="st2" d="M152.7,46.2c-0.7,0-1.4-0.2-1.9-0.7s-0.8-1.1-0.8-1.8s0.2-1.3,0.8-1.8s1.2-0.7,1.9-0.7s1.4,0.2,1.9,0.7
		s0.8,1.1,0.8,1.8s-0.2,1.3-0.8,1.8S153.4,46.2,152.7,46.2z M150.2,66.9V48.6h5.1v18.3H150.2z"/>
	<path class="st2" d="M165.8,74.1c-1.6,0-3.1-0.2-4.2-0.7c-1.2-0.4-2.1-1-2.8-1.8s-1.1-1.6-1.3-2.6l4.7-0.6c0.1,0.3,0.3,0.7,0.7,1
		c0.3,0.3,0.7,0.6,1.2,0.7c0.5,0.2,1.1,0.3,1.9,0.3c1.1,0,2-0.2,2.7-0.8s1.1-1.4,1.1-2.7v-3.3h-0.2c-0.2,0.5-0.5,1-1,1.4
		s-1,0.8-1.7,1.1c-0.7,0.3-1.5,0.4-2.5,0.4c-1.4,0-2.6-0.3-3.8-0.9c-1.1-0.6-2-1.6-2.7-2.9c-0.6-1.3-1-3-1-5s0.3-3.8,1-5.2
		s1.6-2.4,2.7-3.1c1.1-0.7,2.3-1,3.7-1s1.9,0.1,2.6,0.5c0.7,0.3,1.2,0.8,1.7,1.3s0.7,1,1,1.5h0.2v-3.1h5.1v18.5
		c0,1.5-0.4,2.9-1.1,3.9c-0.7,1-1.8,1.8-3.2,2.4c-1.5,0.5-3,0.8-4.8,0.8L165.8,74.1z M165.9,62.8c0.8,0,1.5-0.2,2.1-0.6
		c0.5-0.4,1-1,1.3-1.8c0.3-0.7,0.4-1.7,0.4-2.8s-0.1-2-0.4-2.8s-0.7-1.4-1.3-1.8c-0.6-0.4-1.3-0.6-2.1-0.6s-1.5,0.2-2.1,0.7
		c-0.6,0.4-1,1.1-1.3,1.9c-0.3,0.8-0.4,1.7-0.4,2.7s0.1,2,0.4,2.7s0.7,1.3,1.3,1.8C164.3,62.5,165,62.8,165.9,62.8z"/>
	<path class="st2" d="M179.5,46.2c-0.7,0-1.4-0.2-1.9-0.7s-0.8-1.1-0.8-1.8s0.2-1.3,0.8-1.8s1.2-0.7,1.9-0.7s1.4,0.2,1.9,0.7
		s0.8,1.1,0.8,1.8s-0.2,1.3-0.8,1.8C180.9,46,180.2,46.2,179.5,46.2z M176.9,66.9V48.6h5.1v18.3H176.9z"/>
	<path class="st2" d="M193.6,62.9c-0.1,0-0.3,0-0.5,0s-0.5,0-0.7,0c-0.3,0-0.6,0-0.9-0.1s-0.4-0.3-0.6-0.5s-0.2-0.6-0.2-1.1v-8.8
		h3.4v-3.8h-3.4v-4.4h-5.1v4.4h-2.5v3.8h2.5v9.5c0,1.2,0.2,2.2,0.7,3s1.2,1.4,2.1,1.7c0.9,0.4,2,0.5,3.2,0.5c0.6,0,1.2,0,1.7-0.2
		s0.8-0.2,1.1-0.3L193.6,62.9L193.6,62.9z"/>
	<path class="st2" d="M200.7,67.2c-1.2,0-2.2-0.2-3.1-0.6c-0.9-0.4-1.6-1-2.2-1.8c-0.5-0.8-0.8-1.8-0.8-3s0.2-1.9,0.5-2.6
		c0.4-0.7,0.9-1.2,1.5-1.7c0.6-0.4,1.4-0.7,2.2-0.9s1.7-0.3,2.6-0.4c1,0,1.9-0.2,2.6-0.3s1.1-0.2,1.4-0.4s0.4-0.5,0.4-0.9l0,0
		c0-0.8-0.2-1.4-0.7-1.8c-0.5-0.4-1.1-0.6-2-0.6s-1.6,0.2-2.2,0.6c-0.5,0.4-0.9,0.9-1.1,1.5l-4.7-0.4c0.2-1.1,0.7-2.1,1.4-2.9
		c0.7-0.8,1.6-1.4,2.7-1.9c1.1-0.4,2.4-0.6,3.9-0.6s2,0,2.9,0.3s1.8,0.6,2.5,1.1s1.3,1.1,1.7,1.9c0.4,0.8,0.6,1.7,0.6,2.8V67H206
		v-2.5h-0.1c-0.3,0.6-0.7,1.1-1.2,1.5s-1.1,0.8-1.8,1s-1.5,0.3-2.4,0.3L200.7,67.2z M202.2,63.7c0.7,0,1.4-0.1,2-0.4
		c0.6-0.3,1-0.7,1.3-1.2s0.5-1.1,0.5-1.7v-1.9c-0.1,0-0.4,0.2-0.6,0.3c-0.3,0-0.6,0.1-0.9,0.2c-0.3,0-0.7,0.1-1,0.2
		c-0.3,0-0.6,0-0.9,0.1c-0.6,0-1.1,0.2-1.5,0.4s-0.8,0.4-1,0.7s-0.3,0.7-0.3,1.2c0,0.7,0.2,1.2,0.7,1.6c0.5,0.3,1.2,0.5,1.9,0.5
		L202.2,63.7z"/>
	<path class="st2" d="M218.3,42.4v24.4h-5.1V42.4H218.3z"/>
	<path class="st2" d="M290.1,66.9V42.5h5.2v20.2h10.5V67h-15.6L290.1,66.9z"/>
	<path class="st2" d="M312.4,67.2c-1.2,0-2.2-0.2-3.1-0.6s-1.6-1-2.2-1.8c-0.5-0.8-0.8-1.8-0.8-3s0.2-1.9,0.5-2.6
		c0.4-0.7,0.9-1.2,1.5-1.7c0.6-0.4,1.4-0.7,2.2-0.9s1.7-0.3,2.6-0.4c1,0,1.9-0.2,2.6-0.3c0.6,0,1.1-0.2,1.4-0.4s0.4-0.5,0.4-0.9l0,0
		c0-0.8-0.2-1.4-0.7-1.8s-1.1-0.6-2-0.6s-1.6,0.2-2.2,0.6c-0.5,0.4-0.9,0.9-1.1,1.5l-4.7-0.4c0.2-1.1,0.7-2.1,1.4-2.9
		c0.7-0.8,1.6-1.4,2.7-1.9c1.1-0.4,2.4-0.6,3.9-0.6s2,0,2.9,0.3s1.8,0.6,2.5,1.1s1.3,1.1,1.7,1.9c0.4,0.8,0.6,1.7,0.6,2.8V67h-4.8
		v-2.5h-0.1c-0.3,0.6-0.7,1.1-1.2,1.5s-1.1,0.8-1.8,1c-0.7,0.2-1.5,0.3-2.4,0.3L312.4,67.2z M313.9,63.7c0.7,0,1.4-0.1,2-0.4
		c0.6-0.3,1-0.7,1.3-1.2s0.5-1.1,0.5-1.7v-1.9c-0.1,0-0.4,0.2-0.6,0.3c-0.3,0-0.6,0.1-0.9,0.2c-0.3,0-0.7,0.1-1,0.2
		c-0.3,0-0.6,0-0.9,0.1c-0.6,0-1.1,0.2-1.5,0.4s-0.8,0.4-1,0.7s-0.3,0.7-0.3,1.2c0,0.7,0.2,1.2,0.7,1.6c0.5,0.3,1.2,0.5,1.9,0.5
		L313.9,63.7z"/>
	<path class="st2" d="M325,66.9V42.5h5.1v9.2h0.1c0.2-0.5,0.5-1,1-1.5s1-0.9,1.7-1.3c0.7-0.3,1.5-0.5,2.6-0.5s2.6,0.3,3.7,1
		s2,1.7,2.7,3.1c0.7,1.4,1,3.1,1,5.3s-0.3,3.8-1,5.2s-1.5,2.5-2.7,3.2s-2.4,1.1-3.8,1.1s-1.8-0.1-2.5-0.5s-1.2-0.7-1.7-1.2
		s-0.8-1-1-1.5H330V67L325,66.9L325,66.9z M330,57.7c0,1.1,0.1,2,0.4,2.8s0.7,1.4,1.3,1.9c0.6,0.4,1.3,0.7,2.1,0.7s1.5-0.2,2.1-0.7
		c0.6-0.4,1-1.1,1.3-1.9s0.4-1.7,0.4-2.8s-0.1-2-0.4-2.8s-0.7-1.4-1.3-1.9c-0.6-0.4-1.3-0.7-2.1-0.7s-1.5,0.2-2.1,0.6s-1,1-1.3,1.8
		s-0.4,1.8-0.4,2.9V57.7z"/>
	<path class="st2" d="M359.6,53.8l-4.7,0.3c0-0.4-0.2-0.7-0.5-1.1c-0.2-0.3-0.6-0.6-1-0.8s-0.9-0.3-1.5-0.3s-1.4,0.1-2,0.5
		s-0.8,0.7-0.8,1.3s0.2,0.8,0.5,1.1s0.9,0.5,1.8,0.7l3.3,0.6c1.8,0.3,3.1,0.9,4,1.8c0.9,0.8,1.3,1.9,1.3,3.2s-0.3,2.2-1,3.2
		c-0.7,0.9-1.7,1.6-2.9,2.1c-1.2,0.5-2.6,0.7-4.2,0.7c-2.4,0-4.4-0.5-5.8-1.5s-2.3-2.4-2.5-4.1l5-0.2c0.1,0.7,0.5,1.3,1.1,1.7
		s1.3,0.6,2.2,0.6s1.6-0.1,2.1-0.5c0.5-0.3,0.8-0.8,0.8-1.3s-0.2-0.8-0.6-1.1s-1-0.5-1.8-0.7l-3.2-0.6c-1.8-0.3-3.1-1-4-1.8
		c-0.9-0.9-1.3-2-1.3-3.4s0.3-2.2,0.9-3s1.5-1.5,2.7-2c1.1-0.4,2.5-0.7,4.1-0.7c2.3,0,4.1,0.5,5.5,1.5c1.4,0.9,2.2,2.2,2.4,3.9
		L359.6,53.8z"/>
	<g>
		<path class="st2" d="M49.4,99.4c0,0.5,0.4,0.9,0.9,0.9s0.7-0.2,0.8-0.6h16.4c0.1,0.4,0.5,0.7,1,0.7s1.1-0.5,1.1-1.1
			s-0.5-1.1-1.1-1.1s-1,0.4-1.1,0.9H51.1c-0.1-0.4-0.4-0.6-0.8-0.6S49.4,98.9,49.4,99.4z"/>
		<path class="st2" d="M50.7,95.4c0,0.4,0.3,0.8,0.8,0.8s0.6-0.2,0.7-0.5h13.9c0.1,0.5,0.6,0.9,1.2,0.9s1.2-0.5,1.2-1.2
			s-0.5-1.2-1.2-1.2s-1.1,0.4-1.2,1H52.2c-0.1-0.3-0.4-0.5-0.7-0.5s-0.8,0.3-0.8,0.8L50.7,95.4z"/>
		<path class="st2" d="M52.9,90.7c-0.4,0-0.6,0.3-0.6,0.6s0.3,0.6,0.6,0.6s0.5-0.2,0.6-0.4h11.1c0.2,0.5,0.7,0.9,1.3,0.9
			s1.3-0.6,1.3-1.3s-0.6-1.3-1.3-1.3s-1.3,0.5-1.3,1.2H53.5C53.4,90.8,53.2,90.7,52.9,90.7L52.9,90.7z"/>
		<path class="st2" d="M55.1,86.8c-0.3,0-0.5,0.2-0.5,0.5s0.2,0.5,0.5,0.5s0.4-0.1,0.4-0.3h6.6c0.2,0.6,0.7,1.1,1.4,1.1
			c0.7,0,1.5-0.7,1.5-1.5s-0.7-1.5-1.5-1.5s-1.4,0.6-1.5,1.3h-6.7c0-0.1-0.2-0.2-0.4-0.2L55.1,86.8z"/>
		<path class="st2" d="M57.3,82.8c-0.2,0-0.4,0.2-0.4,0.4s0.2,0.4,0.4,0.4s0.2,0,0.3-0.2h2.2c0.2,0.7,0.8,1.2,1.5,1.2
			s1.6-0.7,1.6-1.6s-0.7-1.6-1.6-1.6s-1.5,0.6-1.5,1.4h-2.2C57.6,82.8,57.5,82.8,57.3,82.8L57.3,82.8z"/>
		<path class="st2" d="M68.7,102.5c-0.4,0-0.8,0.3-0.9,0.7H51.1c0-0.3-0.3-0.5-0.6-0.7c-0.5-0.2-1.1,0-1.3,0.5s0,1.1,0.5,1.3
			c0.5,0.2,1.1,0,1.3-0.5l0,0h16.8c0.1,0.4,0.5,0.7,0.9,0.7s1-0.4,1-1S69.3,102.5,68.7,102.5z"/>
		<path class="st2" d="M51.3,15.3c0.6,0,1.1-0.4,1.2-1h14c0.1,0.3,0.4,0.4,0.7,0.4s0.8-0.3,0.8-0.8s-0.3-0.8-0.8-0.8
			s-0.6,0.2-0.7,0.6h-14c-0.1-0.5-0.6-0.9-1.2-0.9s-1.2,0.5-1.2,1.2s0.5,1.2,1.2,1.2V15.3z"/>
		<path class="st2" d="M49.8,6.9c0.5,0,0.9-0.3,1-0.8h16.9c0,0.3,0.3,0.6,0.6,0.7c0.5,0.2,1.1,0,1.3-0.5c0.2-0.5,0-1.1-0.5-1.3
			S68,5,67.8,5.5l0,0h-17c-0.1-0.4-0.5-0.6-0.9-0.6s-1,0.4-1,1S49.3,6.9,49.8,6.9L49.8,6.9z"/>
		<path class="st2" d="M69.3,9.9c0-0.5-0.4-0.9-0.9-0.9s-0.7,0.3-0.8,0.6H51.1c-0.1-0.4-0.5-0.7-1-0.7S49,9.4,49,10s0.5,1.1,1.1,1.1
			s1-0.4,1.1-0.9h16.5c0.1,0.4,0.4,0.6,0.8,0.6S69.4,10.4,69.3,9.9L69.3,9.9z"/>
		<path class="st2" d="M65.8,17.4c-0.3,0-0.5,0.2-0.6,0.4H53.9c-0.2-0.5-0.7-0.9-1.2-0.9s-1.3,0.6-1.3,1.3s0.6,1.3,1.3,1.3
			s1.3-0.6,1.3-1.3h11.2c0.1,0.2,0.3,0.3,0.5,0.3c0.4,0,0.6-0.3,0.6-0.6s-0.3-0.6-0.6-0.6L65.8,17.4z"/>
		<path class="st2" d="M63.6,21.6c-0.2,0-0.3,0-0.4,0.2h-6.8c-0.2-0.6-0.7-1-1.4-1s-1.5,0.7-1.5,1.5s0.7,1.5,1.5,1.5
			s1.4-0.6,1.5-1.4h6.8c0,0.1,0.2,0.2,0.4,0.2c0.3,0,0.5-0.2,0.5-0.5S64,21.6,63.6,21.6L63.6,21.6z"/>
		<path class="st2" d="M61.3,25.7c-0.1,0-0.3,0-0.3,0.2h-2.3c-0.2-0.7-0.8-1.1-1.5-1.1s-1.6,0.7-1.6,1.6s0.7,1.6,1.6,1.6
			s1.5-0.6,1.5-1.4h2.4c0,0,0.1,0,0.2,0c0.2,0,0.4-0.2,0.4-0.4s-0.2-0.4-0.4-0.4L61.3,25.7z"/>
		<circle class="st2" cx="59.4" cy="30.2" r="1.7"/>
		<path class="st2" d="M68.5,57.9c-0.4,0-0.7,0.2-0.8,0.5H51.2c-0.1-0.5-0.5-0.8-1-0.8s-1.1,0.5-1.1,1.1s0.5,1.1,1.1,1.1
			s0.9-0.3,1-0.8h16.4c0,0.4,0.4,0.7,0.9,0.7s0.9-0.4,0.9-0.9S69,57.9,68.5,57.9z"/>
		<path class="st2" d="M67.3,62.1c-0.3,0-0.6,0.2-0.7,0.5h-14c-0.1-0.6-0.6-1-1.2-1s-1.2,0.5-1.2,1.2s0.5,1.2,1.2,1.2s1-0.4,1.2-0.9
			h14c0.1,0.3,0.4,0.5,0.7,0.5s0.8-0.3,0.8-0.8S67.8,62,67.3,62.1L67.3,62.1z"/>
		<path class="st2" d="M65.9,66.3c-0.3,0-0.5,0.2-0.6,0.4H54.1c-0.2-0.6-0.7-1-1.3-1s-1.3,0.6-1.3,1.3s0.6,1.3,1.3,1.3
			s1.2-0.5,1.3-1.2h11.2c0.1,0.2,0.3,0.4,0.6,0.4s0.6-0.3,0.6-0.6S66.2,66.3,65.9,66.3L65.9,66.3z"/>
		<path class="st2" d="M63.7,70.5c-0.1,0-0.3,0-0.4,0.2h-6.8c-0.2-0.6-0.7-1.1-1.4-1.1s-1.5,0.7-1.5,1.5s0.7,1.5,1.5,1.5
			s1.4-0.6,1.5-1.3h6.7c0,0.2,0.2,0.3,0.4,0.3s0.5-0.2,0.5-0.5S64,70.6,63.7,70.5L63.7,70.5z"/>
		<path class="st2" d="M61.5,74.6c-0.1,0-0.2,0-0.3,0.1h-2.3c-0.1-0.7-0.8-1.2-1.5-1.2s-1.6,0.7-1.6,1.6s0.7,1.6,1.6,1.6
			s1.4-0.6,1.5-1.3h2.3c0,0,0.2,0.1,0.3,0.1c0.2,0,0.4-0.2,0.4-0.4S61.7,74.7,61.5,74.6L61.5,74.6z"/>
		<path class="st2" d="M50,55.6c0.4,0,0.8-0.3,0.9-0.7h16.9c0,0.4,0.5,0.8,1,0.8s1-0.4,1-1s-0.4-1-1-1S68,54,67.9,54.3h-17
			c-0.1-0.4-0.5-0.7-0.9-0.7s-1,0.4-1,1S49.4,55.6,50,55.6z"/>
		<path class="st2" d="M49.3,50.6c0,0.5,0.4,0.9,0.9,0.9s0.7-0.2,0.8-0.5h16.5c0.1,0.5,0.5,0.8,1,0.8s1.1-0.5,1.1-1.1
			s-0.5-1.1-1.1-1.1s-0.9,0.3-1,0.8H51.1c0-0.4-0.4-0.7-0.9-0.7S49.3,50.1,49.3,50.6z"/>
		<path class="st2" d="M50.7,46.6c0,0.4,0.3,0.8,0.8,0.8s0.6-0.2,0.7-0.5h14c0.1,0.5,0.6,1,1.2,1s1.2-0.5,1.2-1.2s-0.5-1.2-1.2-1.2
			s-1.1,0.4-1.2,0.9h-14c-0.1-0.3-0.4-0.5-0.7-0.5S50.7,46.2,50.7,46.6L50.7,46.6z"/>
		<path class="st2" d="M52.9,41.9c-0.4,0-0.6,0.3-0.6,0.6s0.3,0.6,0.6,0.6s0.5-0.2,0.6-0.4h11.2c0.2,0.6,0.7,1,1.3,1
			s1.3-0.6,1.3-1.3s-0.6-1.3-1.3-1.3s-1.2,0.5-1.3,1.2H53.5C53.4,42.1,53.2,41.9,52.9,41.9z"/>
		<path class="st2" d="M55.1,38c-0.3,0-0.5,0.2-0.5,0.5s0.2,0.5,0.5,0.5s0.3,0,0.4-0.2h6.7c0.1,0.7,0.7,1.2,1.4,1.2s1.5-0.7,1.5-1.5
			S64.4,37,63.6,37s-1.3,0.5-1.4,1.2h-6.7C55.5,38.1,55.3,38,55.1,38z"/>
		<path class="st2" d="M57.3,34c-0.2,0-0.4,0.2-0.4,0.4s0.2,0.4,0.4,0.4s0.2,0,0.3-0.1h2.3c0.1,0.7,0.8,1.2,1.5,1.2s1.6-0.7,1.6-1.6
			s-0.7-1.6-1.6-1.6S60,33.3,59.9,34h-2.3C57.6,34,57.4,33.9,57.3,34L57.3,34z"/>
		<circle class="st2" cx="59.4" cy="79.1" r="1.7"/>
		<path class="st2" d="M76.3,100.2l-5-13.5c0.4-0.3,0.7-0.7,0.7-1.3c0-0.8-0.7-1.5-1.5-1.5S69,84.6,69,85.4s0.7,1.5,1.5,1.5
			s0.2,0,0.2,0l5,13.5c-0.5,0.3-0.6,0.9-0.3,1.4c0.3,0.5,0.9,0.6,1.4,0.3c0.5-0.3,0.6-0.9,0.3-1.4c-0.2-0.3-0.5-0.5-0.9-0.5H76.3z"
			/>
		<path class="st2" d="M84.2,96.4L76.9,84c0.5-0.4,0.7-1.1,0.5-1.7c-0.3-0.8-1.2-1.2-2-0.9c-0.8,0.3-1.2,1.2-0.9,2
			c0.3,0.8,1.2,1.2,1.9,0.9l7.3,12.5c-0.3,0.4-0.3,0.9,0,1.3c0.4,0.4,1,0.4,1.4,0s0.4-1,0-1.4C84.8,96.4,84.4,96.3,84.2,96.4
			L84.2,96.4z"/>
		<path class="st2" d="M83.2,12.4l-7.6,13.4c-0.2,0-0.4,0.1-0.5,0.3c-0.1,0.3,0,0.6,0.3,0.7s0.6,0,0.7-0.3c0-0.2,0-0.3,0-0.5
			l7.6-13.4c0.5,0,0.9-0.2,1.1-0.6c0.2-0.5,0-1.1-0.5-1.3s-1.1,0-1.3,0.5C82.8,11.6,83,12,83.2,12.4L83.2,12.4z"/>
		<path class="st2" d="M107.5,66.4c-0.8-0.2-1.7,0.2-2,0.9l-13.4-3.8c0-0.5-0.2-1-0.7-1.2c-0.6-0.3-1.3,0-1.6,0.6
			c-0.3,0.6,0,1.3,0.6,1.6c0.5,0.3,1.2,0,1.5-0.5l13.5,3.8c-0.1,0.8,0.4,1.6,1.2,1.9c0.9,0.3,1.9-0.3,2.1-1.2
			C109,67.6,108.4,66.6,107.5,66.4z"/>
		<path class="st2" d="M108.9,57.4c-0.9,0-1.7,0.5-1.9,1.4l-14-1.3c-0.1-0.5-0.6-0.9-1.1-0.9c-0.6,0-1.1,0.5-1.1,1.1
			s0.5,1.1,1.1,1.1c0.5,0,0.9-0.3,1.1-0.8l14,1.3c0,0.8,0.7,1.5,1.6,1.5c1,0,1.8-0.6,1.9-1.6s-0.6-1.8-1.6-1.9V57.4z"/>
		<path class="st2" d="M106.8,48.4l-14.1,1.8c-0.2-0.4-0.5-0.6-1-0.6c-0.6,0-1.1,0.5-1.1,1.1s0.5,1.1,1.1,1.1s1-0.4,1.1-1l14-1.8
			c0.2,0.8,1,1.3,1.8,1.2c1,0,1.6-0.9,1.6-1.9s-0.9-1.6-1.9-1.6C107.4,46.7,106.7,47.5,106.8,48.4L106.8,48.4z"/>
		<path class="st2" d="M103.6,75.6c-0.4,0-0.8,0.2-1.1,0.5l-12.7-6.4c0.1-0.5,0-1-0.5-1.3c-0.6-0.4-1.3-0.2-1.7,0.4
			c-0.4,0.6-0.2,1.3,0.4,1.7c0.5,0.3,1.2,0.2,1.6-0.2l12.7,6.4c0,0.1,0,0.2,0,0.3c0,0.7,0.6,1.3,1.3,1.3s1.3-0.6,1.3-1.3
			S104.3,75.7,103.6,75.6L103.6,75.6z"/>
		<path class="st2" d="M98.5,83.6c-0.3,0-0.6,0-0.8,0.2l-11.3-8.7c0.3-0.6,0-1.3-0.5-1.7c-0.6-0.4-1.4-0.2-1.8,0.4s-0.2,1.4,0.4,1.8
			c0.5,0.3,1.2,0.3,1.6-0.1l11.3,8.7c-0.1,0.2-0.2,0.4-0.2,0.7c0,0.7,0.6,1.3,1.3,1.3s1.3-0.6,1.3-1.3S99.2,83.6,98.5,83.6z"/>
		<path class="st2" d="M92.2,90.7c-0.2,0-0.5,0-0.7,0.1l-9.4-10.7c0.4-0.5,0.4-1.3,0-1.8c-0.5-0.6-1.4-0.7-2-0.2s-0.7,1.4-0.2,2
			s1.3,0.7,1.9,0.3l9.4,10.7c-0.1,0.2-0.2,0.4-0.3,0.6c0,0.7,0.4,1.3,1.1,1.3s1.3-0.4,1.3-1.1S92.9,90.6,92.2,90.7L92.2,90.7z"/>
		<path class="st2" d="M27.9,17.7l9.3,11.1c-0.4,0.5-0.5,1.3,0,1.8c0.5,0.6,1.4,0.7,2,0.2s0.7-1.4,0.2-2c-0.4-0.6-1.2-0.7-1.8-0.4
			l-9.4-11.1c0.2-0.3,0.2-0.7,0-1c-0.3-0.5-0.9-0.6-1.4-0.3c-0.5,0.3-0.6,0.9-0.3,1.4C26.8,17.8,27.4,18,27.9,17.7L27.9,17.7z"/>
		<path class="st2" d="M35.1,12.6l7.1,12.5c-0.5,0.4-0.7,1.1-0.5,1.7c0.3,0.8,1.2,1.2,2,0.9c0.8-0.3,1.2-1.2,0.9-2s-1.1-1.2-1.9-0.9
			l-7.1-12.5c0.3-0.3,0.4-0.7,0.3-1.1c-0.2-0.5-0.8-0.8-1.3-0.5c-0.5,0.2-0.8,0.8-0.5,1.3C34.3,12.4,34.7,12.7,35.1,12.6L35.1,12.6z
			"/>
		<path class="st2" d="M10.2,60.8c0.8,0,1.5-0.7,1.6-1.5L25.9,58c0.1,0.4,0.5,0.7,1,0.7c0.6,0,1.1-0.5,1.1-1.1s-0.5-1.1-1.1-1.1
			c-0.5,0-1,0.4-1.1,0.9l-14.1,1.3c-0.2-0.9-1-1.5-1.9-1.4c-1,0-1.6,0.9-1.6,1.9S9.1,60.8,10.2,60.8L10.2,60.8z"/>
		<path class="st2" d="M10,50.2c0.8,0,1.6-0.5,1.8-1.2l14,1.8c0,0.6,0.5,1,1.1,1s1.1-0.5,1.1-1.1s-0.5-1.1-1.1-1.1
			c-0.5,0-0.9,0.3-1,0.7l-14-1.8c0-0.9-0.7-1.6-1.6-1.7c-1,0-1.8,0.6-1.9,1.6S9,50.2,10,50.3V50.2z"/>
		<path class="st2" d="M11.6,41.8c0.8,0.2,1.7-0.2,2-0.9L27,45c0,0.5,0.2,1,0.7,1.2c0.6,0.3,1.3,0,1.6-0.6s0-1.3-0.6-1.6
			c-0.5-0.3-1.2,0-1.5,0.5l-13.4-4.1c0.1-0.9-0.4-1.7-1.3-1.9c-0.9-0.3-1.9,0.3-2.1,1.2S10.7,41.6,11.6,41.8z"/>
		<path class="st2" d="M21.1,24.5c0.3,0,0.6-0.1,0.8-0.3L33,33.3c-0.3,0.6-0.2,1.4,0.4,1.7c0.6,0.4,1.4,0.2,1.8-0.4
			c0.4-0.6,0.2-1.4-0.4-1.8c-0.5-0.3-1.1-0.3-1.5,0l-11.1-9.1c0-0.2,0.1-0.3,0.1-0.5c0-0.7-0.5-1.2-1.2-1.2s-1.2,0.5-1.2,1.2
			S20.4,24.4,21.1,24.5L21.1,24.5z"/>
		<path class="st2" d="M27.6,91.2l10-11.3c0.3,0,0.5,0,0.7-0.2c0.3-0.3,0.2-0.7,0-1s-0.7-0.2-1,0c-0.2,0.2-0.2,0.5,0,0.8l-10,11.3
			c-0.2-0.1-0.4-0.2-0.7-0.1c-0.7,0-1.2,0.7-1.1,1.3c0,0.7,0.7,1.2,1.3,1.1c0.7,0,1.2-0.7,1.1-1.3C27.9,91.6,27.8,91.3,27.6,91.2z"
			/>
		<path class="st2" d="M15.6,33c0.4,0,0.8-0.2,1.1-0.5l12.6,6.6c-0.2,0.5,0,1.1,0.5,1.4c0.6,0.4,1.3,0.2,1.7-0.4s0.2-1.3-0.4-1.7
			c-0.5-0.3-1.2-0.2-1.6,0.2L16.9,32c0-0.2,0.1-0.4,0.1-0.6c0-0.8-0.7-1.5-1.5-1.5S14,30.6,14,31.4s0.7,1.5,1.5,1.5L15.6,33z"/>
		<path class="st2" d="M69.9,24.2c0.2,0,0.5,0,0.5-0.3c0-0.1,0-0.2,0-0.3l5-14.6c0.5,0,0.9-0.3,1-0.8S76.2,7.1,75.6,7
			c-0.5-0.1-1.1,0.2-1.2,0.8c0,0.4,0,0.8,0.4,1l-5,14.6c-0.1,0-0.2,0.1-0.3,0.3C69.5,23.9,69.5,24.2,69.9,24.2L69.9,24.2z"/>
		<path class="st2" d="M48.3,84.9c-0.2,0-0.5,0-0.5,0.3c0,0.1,0,0.2,0,0.3l-5.4,14.6c-0.3,0-0.7,0.2-0.9,0.5
			c-0.3,0.5-0.2,1.1,0.3,1.4s1.1,0.2,1.4-0.3c0.3-0.5,0.2-1.1-0.3-1.4l5.4-14.6c0.1,0,0.2-0.1,0.3-0.3
			C48.6,85.2,48.6,84.9,48.3,84.9z"/>
		<path class="st2" d="M50.2,23.8c0-0.8-0.7-1.5-1.5-1.5s-0.2,0-0.2,0L43.8,8.7c0.3-0.2,0.5-0.6,0.4-1c-0.1-0.5-0.6-0.9-1.2-0.8
			c-0.5,0.1-0.9,0.6-0.8,1.2c0.1,0.5,0.6,0.8,1.1,0.8L48,22.5c-0.4,0.3-0.7,0.7-0.7,1.3c0,0.8,0.7,1.5,1.5,1.5S50.3,24.6,50.2,23.8
			L50.2,23.8z"/>
		<path class="st2" d="M89,38.8c-0.2-0.2-0.6-0.3-0.9-0.2c-0.5,0.1-0.8,0.7-0.7,1.2c0.1,0.5,0.7,0.8,1.2,0.7s0.8-0.6,0.7-1.1
			l12.8-6.7c0.3,0.3,0.6,0.4,1.1,0.4c0.8,0,1.5-0.7,1.5-1.5s-0.7-1.5-1.5-1.5s-1.5,0.7-1.5,1.5s0,0.4,0.1,0.6L89,38.9L89,38.8z"/>
		<path class="st2" d="M91.4,44.6c-0.2-0.3-0.7-0.5-1.1-0.4c-0.5,0.1-0.8,0.7-0.7,1.2c0.1,0.5,0.7,0.8,1.2,0.7
			c0.4-0.1,0.7-0.5,0.7-1l13.6-4.2c0.4,0.7,1.2,1.1,2,0.9c0.9-0.3,1.5-1.2,1.2-2.1s-1.2-1.5-2.1-1.2c-0.9,0.2-1.4,1.1-1.3,1.9
			l-13.6,4.2L91.4,44.6z"/>
		<path class="st2" d="M85.1,33.2c-0.3-0.2-0.6-0.2-0.9,0c-0.4,0.2-0.5,0.8-0.3,1.2s0.8,0.5,1.2,0.3c0.3-0.2,0.5-0.6,0.3-1l11.5-9.4
			c0.2,0.2,0.5,0.2,0.7,0.2c0.7,0,1.2-0.5,1.2-1.2s-0.5-1.2-1.2-1.2s-1.2,0.5-1.2,1.2s0,0.4,0.1,0.6L85,33.3L85.1,33.2z"/>
		<path class="st2" d="M80.7,29c-0.3,0-0.5,0-0.7,0.2c-0.3,0.3-0.2,0.7,0,1c0.3,0.3,0.7,0.2,1,0c0.2-0.2,0.2-0.5,0-0.8l9.8-11.6
			c0.5,0.3,1.1,0.1,1.3-0.3c0.3-0.5,0.2-1.1-0.3-1.4c-0.5-0.3-1.1-0.2-1.4,0.3c-0.2,0.3-0.2,0.7,0,1l-9.9,11.7L80.7,29z"/>
		<path class="st2" d="M29.5,70c0.2,0.3,0.6,0.4,1,0.3c0.5-0.1,0.8-0.7,0.7-1.2c-0.1-0.5-0.7-0.8-1.2-0.7c-0.5,0.1-0.8,0.6-0.7,1.1
			l-13,6.6c-0.2-0.3-0.6-0.5-1.1-0.5c-0.7,0-1.3,0.6-1.3,1.3s0.6,1.3,1.3,1.3s1.3-0.6,1.3-1.3s0-0.2,0-0.3L29.5,70L29.5,70z"/>
		<path class="st2" d="M27.1,64c0.2,0.3,0.7,0.5,1.1,0.4c0.5-0.1,0.8-0.7,0.7-1.2c-0.1-0.5-0.7-0.8-1.2-0.7C27.3,62.6,27,63,27,63.4
			l-13.6,3.8c-0.3-0.8-1.2-1.2-2-1c-0.9,0.3-1.5,1.2-1.2,2.1s1.2,1.5,2.1,1.2c0.8-0.2,1.3-1,1.2-1.9l13.7-3.8L27.1,64z"/>
		<path class="st2" d="M33.1,75.3c0.3,0.2,0.6,0.2,0.9,0c0.4-0.2,0.5-0.8,0.3-1.2c-0.2-0.4-0.8-0.5-1.2-0.3
			c-0.3,0.2-0.4,0.6-0.3,0.9l-11.7,9c-0.2-0.2-0.5-0.3-0.8-0.3c-0.7,0-1.3,0.6-1.3,1.3s0.6,1.3,1.3,1.3s1.3-0.6,1.3-1.3
			s0-0.5-0.2-0.7l11.7-9V75.3z"/>
		<path class="st2" d="M42.8,83.4c0.2,0,0.4-0.1,0.5-0.3c0.1-0.3,0-0.6-0.3-0.7s-0.6,0-0.7,0.3c0,0.2,0,0.4,0,0.5l-7.8,13.2
			c-0.4-0.1-0.8,0-1,0.3c-0.4,0.4-0.3,1,0,1.4c0.4,0.4,1,0.3,1.4,0c0.3-0.4,0.3-0.9,0-1.3L42.8,83.4L42.8,83.4z"/>
	</g>
</g>
<g>
	<path class="st2" d="M229.3,42.9c2.3,0,4.4,0.5,6.2,1.4c1.7,1,3,2.3,4,4c0.9,1.8,1.4,3.9,1.4,6.3s-0.5,4.5-1.4,6.3
		c-0.9,1.7-2.2,3.1-4,4c-1.9,0.9-3.9,1.4-6.3,1.4h-8.5V42.9h8.5 M225.7,62.3h3.4c1.4,0,2.6-0.3,3.7-0.7c1.1-0.5,1.9-1.4,2.4-2.5
		s0.8-2.6,0.8-4.4s-0.3-3.3-0.8-4.4c-0.5-1.1-1.3-1.9-2.4-2.5c-1-0.5-2.3-0.7-3.7-0.7h-3.3v0.5V62v0.5 M229.3,42.4h-9v24.4h9
		c2.5,0,4.6-0.5,6.5-1.4c1.8-1,3.2-2.4,4.2-4.2c0.9-1.8,1.4-4,1.4-6.6s-0.5-4.7-1.5-6.6c-1-1.8-2.4-3.2-4.2-4.2
		c-1.8-0.9-4-1.4-6.5-1.4l0,0H229.3z M226.2,61.8V47.4h2.8c1.4,0,2.6,0.2,3.5,0.7s1.7,1.2,2.2,2.3c0.5,1,0.7,2.5,0.7,4.2
		s-0.2,3.2-0.7,4.2c-0.4,1-1.2,1.8-2.1,2.3c-0.9,0.4-2.1,0.7-3.5,0.7C229.1,61.8,226.2,61.8,226.2,61.8z"/>
</g>
<path class="st2" d="M263.3,42.9v23.4H259l-9.5-13.9v-0.2h-1.1v14.1h-4.9V42.9h4.3l9.5,13.8v0.2h1.1V42.8L263.3,42.9 M263.8,42.4
	h-5.9v14.1h-0.2l-9.6-14.1H243v24.4h5.9V52.7h0.1l9.7,14.1h5V42.4l0,0H263.8z"/>
<path class="st2" d="M280.4,42.9l7.9,23.4H283l-1.5-4.8v-0.3h-9.3v0.4c-0.1,0-1.6,4.8-1.6,4.8h-5.3l7.9-23.4h7.2 M273.3,57.7h7
	l-0.2-0.7l-2.7-8.6v-0.3h-1v0.3c-0.1,0-2.8,8.6-2.8,8.6L273.3,57.7 M280.7,42.4h-7.9l-8.2,24.4h6.4l1.6-5.1h8.4l1.6,5.1h6.4
	L280.7,42.4L280.7,42.4L280.7,42.4z M274,57.2l2.7-8.6h0.2l2.7,8.6L274,57.2L274,57.2z"/>
</svg>
